<?xml version="1.0" encoding="UTF-8"?> <svg xmlns="http://www.w3.org/2000/svg" width="60" height="56" viewBox="0 0 60 56" fill="none"><path d="M60 0H0V56H60V0Z" fill="#BA0C2F"></path><path d="M13.4907 23.953V22.0118C13.4907 21.0962 13.2312 20.8765 12.7124 20.8765C12.1936 20.8765 11.9341 21.0962 11.9341 22.0118V24.246C11.9341 25.5645 16.0107 29.1538 16.0107 30.985V34.2081C16.0107 36.5887 14.2689 37.2846 12.7124 37.2846C11.1559 37.2846 9.41406 36.5887 9.41406 34.2081V33.2192L11.9341 31.7542V33.9883C11.9341 34.9039 12.1936 35.1237 12.7124 35.1237C13.1942 35.1237 13.4907 34.9039 13.4907 33.9883V32.0838C13.4907 29.52 9.41406 27.3591 9.41406 24.3925V21.7921C9.41406 19.4115 11.1559 18.7156 12.7124 18.7156C14.2689 18.7156 16.0107 19.4115 16.0107 21.7921V22.4514L13.4907 23.953Z" fill="white"></path><path d="M30.3882 34.8307H32.4265L33.1307 37.2846H27.8682V18.7156H30.3882V34.8307Z" fill="white"></path><path d="M50.5868 18.7155V21.1693H48.1779V37.2845H45.6578V21.1693H43.4342L43.1748 18.7155H50.5868Z" fill="white"></path><path d="M40.6174 18.7155H36.8373L34.9102 37.2845H37.2079L37.7638 32.34H39.5426L40.0244 37.2845H42.5816L40.6174 18.7155ZM37.9861 29.8862L38.542 23.0739H38.8385L39.2832 29.8862H37.9861Z" fill="white"></path><path d="M21.2719 18.7155H18.6406V37.2845H21.1607V20.9496C22.1984 20.9496 22.7172 20.9862 22.7172 22.7442V27.1759C22.7172 27.7619 22.1984 27.945 21.6054 28.0183L22.1984 30.2158C24.1996 29.996 25.2373 29.0804 25.2373 26.4434V22.3414C25.2002 19.8508 24.0514 18.7155 21.2719 18.7155Z" fill="white"></path><path d="M51.2891 16.4812V14.7598H52.0673C52.2156 14.7598 52.3267 14.7598 52.4379 14.7964L52.6232 14.9429C52.6603 15.0161 52.6973 15.0894 52.6973 15.1993C52.6973 15.3091 52.6603 15.419 52.5862 15.4923C52.512 15.5655 52.4009 15.6388 52.2156 15.6388L52.3638 15.712C52.4379 15.7853 52.475 15.8585 52.5491 15.9318L52.8456 16.4079H52.5491L52.3267 16.0417C52.2526 15.9318 52.2156 15.8585 52.1785 15.8219L52.0673 15.712L51.9561 15.6754H51.845H51.5114V16.4812H51.2891ZM51.5114 15.5289H51.9932C52.1044 15.5289 52.1785 15.5289 52.2526 15.4923L52.4009 15.3824L52.4379 15.2359L52.3267 15.0528C52.2897 15.0161 52.1785 14.9795 52.0303 14.9795H51.5114V15.5289Z" fill="white"></path><path d="M50.3262 15.6756C50.3262 16.5546 51.0674 17.2871 51.9939 17.2871C52.8833 17.2871 53.6245 16.5546 53.6245 15.6756C53.6245 14.7966 52.8833 14.0641 51.9939 14.0641C51.0674 14.0641 50.3262 14.7966 50.3262 15.6756ZM50.5115 15.6756C50.5115 14.8698 51.1785 14.2472 51.9568 14.2472C52.7351 14.2472 53.4022 14.8698 53.4022 15.6756C53.4022 16.4447 52.7721 17.104 51.9568 17.104C51.1785 17.104 50.5115 16.4814 50.5115 15.6756Z" fill="white"></path></svg> 