<svg width="228" height="172" viewBox="0 0 228 172" fill="none" xmlns="http://www.w3.org/2000/svg">
<g clip-path="url(#clip0_14513_15092)">
<g opacity="0.4">
<mask id="path-1-outside-1_14513_15092" maskUnits="userSpaceOnUse" x="109" y="-7.91176e-06" width="77" height="110" fill="black">
<rect fill="white" x="109" y="-7.91176e-06" width="77" height="110"/>
<path d="M179.669 26.0024C160.718 11.6972 137.613 3.97153 113.869 4.00007L113.986 101.184C116.56 101.181 119.064 102.018 121.119 103.569L179.669 26.0024Z"/>
</mask>
<path d="M179.669 26.0024C160.718 11.6972 137.613 3.97153 113.869 4.00007L113.986 101.184C116.56 101.181 119.064 102.018 121.119 103.569L179.669 26.0024Z" fill="#FFB03A"/>
<path d="M179.669 26.0024C160.718 11.6972 137.613 3.97153 113.869 4.00007L113.986 101.184C116.56 101.181 119.064 102.018 121.119 103.569L179.669 26.0024Z" stroke="white" stroke-width="8" mask="url(#path-1-outside-1_14513_15092)"/>
</g>
<mask id="path-2-outside-2_14513_15092" maskUnits="userSpaceOnUse" x="38" y="-4.93939e-06" width="80" height="61" fill="black">
<rect fill="white" x="38" y="-4.93939e-06" width="80" height="61"/>
<path d="M114 4C88.3465 4 63.5151 13.0482 43.8754 29.5522L64.9128 54.5865C78.6605 43.0337 96.0426 36.7 114 36.7L114 4Z"/>
</mask>
<path d="M114 4C88.3465 4 63.5151 13.0482 43.8754 29.5522L64.9128 54.5865C78.6605 43.0337 96.0426 36.7 114 36.7L114 4Z" fill="#FFE03A"/>
<path d="M114 4C88.3465 4 63.5151 13.0482 43.8754 29.5522L64.9128 54.5865C78.6605 43.0337 96.0426 36.7 114 36.7L114 4Z" stroke="white" stroke-width="8" mask="url(#path-2-outside-2_14513_15092)"/>
<mask id="path-3-outside-3_14513_15092" maskUnits="userSpaceOnUse" x="2" y="23" width="69" height="81" fill="black">
<rect fill="white" x="2" y="23" width="69" height="81"/>
<path d="M43.9231 29.5121C24.4951 45.8193 11.3625 68.3915 6.78761 93.3403L38.9513 99.2382C42.1538 81.7741 51.3466 65.9735 64.9462 54.5585L43.9231 29.5121Z"/>
</mask>
<path d="M43.9231 29.5121C24.4951 45.8193 11.3625 68.3915 6.78761 93.3403L38.9513 99.2382C42.1538 81.7741 51.3466 65.9735 64.9462 54.5585L43.9231 29.5121Z" fill="#93EE73"/>
<path d="M43.9231 29.5121C24.4951 45.8193 11.3625 68.3915 6.78761 93.3403L38.9513 99.2382C42.1538 81.7741 51.3466 65.9735 64.9462 54.5585L43.9231 29.5121Z" stroke="white" stroke-width="8" mask="url(#path-3-outside-3_14513_15092)"/>
<mask id="path-4-outside-4_14513_15092" maskUnits="userSpaceOnUse" x="3.67176e-06" y="88" width="53" height="84" fill="black">
<rect fill="white" x="3.67176e-06" y="88" width="53" height="84"/>
<path d="M6.79253 93.3135C2.2114 118.261 6.47423 144.025 18.8467 166.168L47.3927 150.218C38.732 134.718 35.748 116.683 38.9548 99.2195L6.79253 93.3135Z"/>
</mask>
<path d="M6.79253 93.3135C2.2114 118.261 6.47423 144.025 18.8467 166.168L47.3927 150.218C38.732 134.718 35.748 116.683 38.9548 99.2195L6.79253 93.3135Z" fill="#46BB44"/>
<path d="M6.79253 93.3135C2.2114 118.261 6.47423 144.025 18.8467 166.168L47.3927 150.218C38.732 134.718 35.748 116.683 38.9548 99.2195L6.79253 93.3135Z" stroke="white" stroke-width="8" mask="url(#path-4-outside-4_14513_15092)"/>
<mask id="path-5-outside-5_14513_15092" maskUnits="userSpaceOnUse" x="110" y="-4.93939e-06" width="80" height="61" fill="black">
<rect fill="white" x="110" y="-4.93939e-06" width="80" height="61"/>
<path d="M114 4C139.653 4 164.485 13.0482 184.124 29.5522L163.087 54.5865C149.339 43.0337 131.957 36.7 114 36.7L114 4Z"/>
</mask>
<path d="M114 4C139.653 4 164.485 13.0482 184.124 29.5522L163.087 54.5865C149.339 43.0337 131.957 36.7 114 36.7L114 4Z" fill="#FFB03A"/>
<path d="M114 4C139.653 4 164.485 13.0482 184.124 29.5522L163.087 54.5865C149.339 43.0337 131.957 36.7 114 36.7L114 4Z" stroke="white" stroke-width="8" mask="url(#path-5-outside-5_14513_15092)"/>
<mask id="path-6-outside-6_14513_15092" maskUnits="userSpaceOnUse" x="157" y="23" width="69" height="81" fill="black">
<rect fill="white" x="157" y="23" width="69" height="81"/>
<path d="M184.077 29.5121C203.505 45.8193 216.637 68.3915 221.212 93.3403L189.048 99.2382C185.846 81.7741 176.653 65.9735 163.054 54.5585L184.077 29.5121Z"/>
</mask>
<path d="M184.077 29.5121C203.505 45.8193 216.637 68.3915 221.212 93.3403L189.048 99.2382C185.846 81.7741 176.653 65.9735 163.054 54.5585L184.077 29.5121Z" fill="#FC7051"/>
<path d="M184.077 29.5121C203.505 45.8193 216.637 68.3915 221.212 93.3403L189.048 99.2382C185.846 81.7741 176.653 65.9735 163.054 54.5585L184.077 29.5121Z" stroke="white" stroke-width="8" mask="url(#path-6-outside-6_14513_15092)"/>
<mask id="path-7-outside-7_14513_15092" maskUnits="userSpaceOnUse" x="175" y="88" width="53" height="84" fill="black">
<rect fill="white" x="175" y="88" width="53" height="84"/>
<path d="M221.207 93.3135C225.788 118.261 221.526 144.025 209.153 166.168L180.607 150.218C189.268 134.718 192.252 116.683 189.045 99.2195L221.207 93.3135Z"/>
</mask>
<path d="M221.207 93.3135C225.788 118.261 221.526 144.025 209.153 166.168L180.607 150.218C189.268 134.718 192.252 116.683 189.045 99.2195L221.207 93.3135Z" fill="#BA0C2F"/>
<path d="M221.207 93.3135C225.788 118.261 221.526 144.025 209.153 166.168L180.607 150.218C189.268 134.718 192.252 116.683 189.045 99.2195L221.207 93.3135Z" stroke="white" stroke-width="8" mask="url(#path-7-outside-7_14513_15092)"/>
<path d="M141.933 46.422L107.69 100.232L127.734 109.3L145.54 48.0541C146.186 45.8333 143.174 44.4708 141.933 46.422Z" fill="#2C2C2C"/>
<circle cx="114" cy="113" r="17" fill="#2C2C2C" stroke="white" stroke-width="4"/>
</g>
<defs>
<clipPath id="clip0_14513_15092">
<rect width="228" height="172" fill="white"/>
</clipPath>
</defs>
</svg>
