<svg width="16" height="16" viewBox="0 0 16 16" fill="none" xmlns="http://www.w3.org/2000/svg">
<path d="M12 0H4C1.79086 0 0 1.79086 0 4V12C0 14.2091 1.79086 16 4 16H12C14.2091 16 16 14.2091 16 12V4C16 1.79086 14.2091 0 12 0Z" fill="#BA0C2F"/>
<path d="M8.47191 5.71154V4.61391C8.47191 4.09615 8.31461 3.97189 8 3.97189C7.68539 3.97189 7.52809 4.09615 7.52809 4.61391V5.87722C7.52809 6.62278 10 8.65237 10 9.68787V11.5104C10 12.8565 8.94382 13.25 8 13.25C7.05618 13.25 6 12.8565 6 11.5104V10.9512L7.52809 10.1228V11.3861C7.52809 11.9038 7.68539 12.0281 8 12.0281C8.29213 12.0281 8.47191 11.9038 8.47191 11.3861V10.3092C8.47191 8.85947 6 7.63757 6 5.96006V4.48965C6 3.14349 7.05618 2.75 8 2.75C8.94382 2.75 10 3.14349 10 4.48965V4.86243L8.47191 5.71154Z" fill="white"/>
</svg>
