<svg width="40" height="40" viewBox="0 0 40 40" fill="none" xmlns="http://www.w3.org/2000/svg">
<rect width="40" height="40" rx="11.4286" fill="#30C018"/>
<path d="M29.6451 24.0724V15.9295V15.926C29.6451 14.7282 29.6451 14.129 29.4118 13.671C29.2063 13.2678 28.8781 12.94 28.4749 12.7345C28.0165 12.501 27.4168 12.501 26.2167 12.501H13.7882C12.588 12.501 11.9875 12.501 11.5292 12.7345C11.126 12.94 10.7984 13.2678 10.5929 13.671C10.3594 14.1294 10.3594 14.7294 10.3594 15.9295V24.0724C10.3594 25.2725 10.3594 25.8726 10.5929 26.331C10.7984 26.7342 11.126 27.0619 11.5292 27.2674C11.9875 27.5009 12.588 27.501 13.7882 27.501H26.2167C27.4168 27.501 28.0165 27.5009 28.4749 27.2674C28.8781 27.0619 29.2063 26.7342 29.4118 26.331C29.6451 25.8731 29.6451 25.2736 29.6451 24.0759V24.0724Z" fill="white"/>
<path d="M11.4308 13.5724L19.814 19.6852C20.0707 19.8723 20.42 19.8675 20.6714 19.6734L28.5736 13.5724M29.6451 15.9295V24.0724C29.6451 25.2725 29.6453 25.8726 29.4118 26.331C29.2063 26.7342 28.8781 27.0619 28.4749 27.2674C28.0165 27.5009 27.4168 27.501 26.2167 27.501H13.7882C12.588 27.501 11.9875 27.5009 11.5292 27.2674C11.126 27.0619 10.7984 26.7342 10.5929 26.331C10.3594 25.8726 10.3594 25.2725 10.3594 24.0724V15.9295C10.3594 14.7294 10.3594 14.1294 10.5929 13.671C10.7984 13.2678 11.126 12.94 11.5292 12.7345C11.9875 12.501 12.588 12.501 13.7882 12.501H26.2167C27.4168 12.501 28.0165 12.501 28.4749 12.7345C28.8781 12.94 29.2063 13.2678 29.4118 13.671C29.6453 14.1294 29.6451 14.7294 29.6451 15.9295Z" stroke="#30C018" stroke-width="1.07143" stroke-linecap="round" stroke-linejoin="round"/>
</svg>
