<svg width="40" height="40" viewBox="0 0 40 40" fill="none" xmlns="http://www.w3.org/2000/svg">
<rect width="40" height="40" rx="11.4286" fill="#BC0000"/>
<path d="M27.5 17.1347V26.2146V26.2181C27.5 27.4159 27.5 28.0152 27.2667 28.4731C27.0612 28.8763 26.733 29.2041 26.3298 29.4095C25.8714 29.6431 25.2718 29.6431 24.0716 29.6431H15.9288C14.7287 29.6431 14.1282 29.6431 13.6698 29.4095C13.2666 29.2041 12.939 28.8763 12.7336 28.4731C12.5 28.0147 12.5 27.4147 12.5 26.2146V13.786C12.5 12.5859 12.5 11.9858 12.7336 11.5275C12.939 11.1243 13.2666 10.7964 13.6698 10.591C14.1282 10.3574 14.7287 10.3574 15.9288 10.3574H20.7229C20.8542 10.3574 20.9691 10.3574 21.0714 10.3584C21.3774 10.3611 21.571 10.3723 21.7558 10.4166C21.9745 10.4691 22.1834 10.5557 22.3751 10.6732C22.5914 10.8057 22.7767 10.991 23.1473 11.3616L26.4961 14.7104C26.8667 15.081 27.0515 15.2663 27.184 15.4825C27.3015 15.6743 27.3879 15.8832 27.4404 16.1019C27.4847 16.2867 27.4961 16.4801 27.499 16.786C27.5 16.8884 27.5 17.0033 27.5 17.1347Z" fill="white"/>
<path d="M27.5002 16.786H24.5002C23.3001 16.786 22.6996 16.786 22.2412 16.5524C21.838 16.347 21.5104 16.0192 21.305 15.616C21.0714 15.1576 21.0714 14.5575 21.0714 13.3574V10.3574M27.5 26.2146V17.1347C27.5 16.6106 27.4996 16.3485 27.4404 16.1019C27.3879 15.8832 27.3015 15.6743 27.184 15.4825C27.0515 15.2663 26.8667 15.081 26.4961 14.7104L23.1473 11.3616C22.7767 10.991 22.5914 10.8057 22.3751 10.6732C22.1834 10.5557 21.9745 10.4691 21.7558 10.4166C21.5092 10.3574 21.247 10.3574 20.7229 10.3574H15.9288C14.7287 10.3574 14.1282 10.3574 13.6698 10.591C13.2666 10.7964 12.939 11.1243 12.7336 11.5275C12.5 11.9858 12.5 12.5859 12.5 13.786V26.2146C12.5 27.4147 12.5 28.0147 12.7336 28.4731C12.939 28.8763 13.2666 29.2041 13.6698 29.4095C14.1282 29.6431 14.7287 29.6431 15.9288 29.6431H24.0716C25.2718 29.6431 25.8714 29.6431 26.3298 29.4095C26.733 29.2041 27.0612 28.8763 27.2667 28.4731C27.5002 28.0147 27.5 27.4147 27.5 26.2146Z" stroke="url(#paint0_linear_1240_14748)" stroke-width="1.07143" stroke-linecap="round" stroke-linejoin="round"/>
<defs>
<linearGradient id="paint0_linear_1240_14748" x1="20.0001" y1="10.3574" x2="20.0001" y2="29.6431" gradientUnits="userSpaceOnUse">
<stop stop-color="#BB0101"/>
<stop offset="1" stop-color="#B20202"/>
</linearGradient>
</defs>
</svg>
