<svg width="40" height="40" viewBox="0 0 40 40" fill="none" xmlns="http://www.w3.org/2000/svg">
<rect width="40" height="40" rx="11.4286" fill="#2AABEE"/>
<path fill-rule="evenodd" clip-rule="evenodd" d="M11.3997 19.8335C15.9808 17.8376 19.0355 16.5218 20.564 15.8861C24.928 14.071 25.8348 13.7556 26.4258 13.7452C26.5558 13.7429 26.8465 13.7752 27.0348 13.9279C27.1937 14.0569 27.2375 14.2312 27.2584 14.3535C27.2794 14.4758 27.3054 14.7544 27.2847 14.9721C27.0482 17.4569 26.0249 23.4869 25.5043 26.2699C25.2841 27.4475 24.8503 27.8423 24.4304 27.8809C23.5179 27.9649 22.8249 27.2779 21.941 26.6985C20.558 25.7919 19.7766 25.2275 18.4341 24.3428C16.8826 23.3204 17.8884 22.7585 18.7726 21.8401C19.004 21.5998 23.0248 17.9426 23.1026 17.6108C23.1123 17.5693 23.1213 17.4147 23.0295 17.333C22.9376 17.2513 22.802 17.2793 22.7041 17.3015C22.5654 17.333 20.3559 18.7933 16.0757 21.6826C15.4486 22.1132 14.8805 22.3231 14.3716 22.3121C13.8105 22.2999 12.7312 21.9948 11.9288 21.734C10.9447 21.4141 10.1626 21.245 10.2307 20.7017C10.2662 20.4187 10.6559 20.1293 11.3997 19.8335Z" fill="white"/>
</svg>
