<svg width="228" height="172" viewBox="0 0 228 172" fill="none" xmlns="http://www.w3.org/2000/svg">
<g clip-path="url(#clip0_14513_15140)">
<g opacity="0.4">
<mask id="path-1-outside-1_14513_15140" maskUnits="userSpaceOnUse" x="118" y="88" width="110" height="84" fill="black">
<rect fill="white" x="118" y="88" width="110" height="84"/>
<path d="M209.156 166.164C221.545 143.989 225.8 118.185 221.188 93.2071L125.62 110.854C126.12 113.562 125.658 116.359 124.315 118.763L209.156 166.164Z"/>
</mask>
<path d="M209.156 166.164C221.545 143.989 225.8 118.185 221.188 93.2071L125.62 110.854C126.12 113.562 125.658 116.359 124.315 118.763L209.156 166.164Z" fill="#BA0C2F"/>
<path d="M209.156 166.164C221.545 143.989 225.8 118.185 221.188 93.2071L125.62 110.854C126.12 113.562 125.658 116.359 124.315 118.763L209.156 166.164Z" stroke="white" stroke-width="8" mask="url(#path-1-outside-1_14513_15140)"/>
</g>
<mask id="path-2-outside-2_14513_15140" maskUnits="userSpaceOnUse" x="38" y="1.03194e-05" width="80" height="61" fill="black">
<rect fill="white" x="38" y="1.03194e-05" width="80" height="61"/>
<path d="M114 4.00001C88.3465 4.00001 63.5151 13.0482 43.8754 29.5522L64.9128 54.5865C78.6605 43.0337 96.0426 36.7 114 36.7L114 4.00001Z"/>
</mask>
<path d="M114 4.00001C88.3465 4.00001 63.5151 13.0482 43.8754 29.5522L64.9128 54.5865C78.6605 43.0337 96.0426 36.7 114 36.7L114 4.00001Z" fill="#FFE03A"/>
<path d="M114 4.00001C88.3465 4.00001 63.5151 13.0482 43.8754 29.5522L64.9128 54.5865C78.6605 43.0337 96.0426 36.7 114 36.7L114 4.00001Z" stroke="white" stroke-width="8" mask="url(#path-2-outside-2_14513_15140)"/>
<mask id="path-3-outside-3_14513_15140" maskUnits="userSpaceOnUse" x="2" y="23" width="69" height="81" fill="black">
<rect fill="white" x="2" y="23" width="69" height="81"/>
<path d="M43.9231 29.5121C24.4951 45.8193 11.3625 68.3915 6.78761 93.3403L38.9513 99.2382C42.1538 81.7741 51.3466 65.9735 64.9462 54.5585L43.9231 29.5121Z"/>
</mask>
<path d="M43.9231 29.5121C24.4951 45.8193 11.3625 68.3915 6.78761 93.3403L38.9513 99.2382C42.1538 81.7741 51.3466 65.9735 64.9462 54.5585L43.9231 29.5121Z" fill="#93EE73"/>
<path d="M43.9231 29.5121C24.4951 45.8193 11.3625 68.3915 6.78761 93.3403L38.9513 99.2382C42.1538 81.7741 51.3466 65.9735 64.9462 54.5585L43.9231 29.5121Z" stroke="white" stroke-width="8" mask="url(#path-3-outside-3_14513_15140)"/>
<mask id="path-4-outside-4_14513_15140" maskUnits="userSpaceOnUse" x="3.67176e-06" y="88" width="53" height="84" fill="black">
<rect fill="white" x="3.67176e-06" y="88" width="53" height="84"/>
<path d="M6.79253 93.3136C2.2114 118.261 6.47423 144.025 18.8467 166.168L47.3927 150.218C38.732 134.718 35.748 116.683 38.9548 99.2195L6.79253 93.3136Z"/>
</mask>
<path d="M6.79253 93.3136C2.2114 118.261 6.47423 144.025 18.8467 166.168L47.3927 150.218C38.732 134.718 35.748 116.683 38.9548 99.2195L6.79253 93.3136Z" fill="#46BB44"/>
<path d="M6.79253 93.3136C2.2114 118.261 6.47423 144.025 18.8467 166.168L47.3927 150.218C38.732 134.718 35.748 116.683 38.9548 99.2195L6.79253 93.3136Z" stroke="white" stroke-width="8" mask="url(#path-4-outside-4_14513_15140)"/>
<mask id="path-5-outside-5_14513_15140" maskUnits="userSpaceOnUse" x="110" y="1.03194e-05" width="80" height="61" fill="black">
<rect fill="white" x="110" y="1.03194e-05" width="80" height="61"/>
<path d="M114 4.00001C139.654 4.00001 164.485 13.0482 184.125 29.5522L163.087 54.5865C149.34 43.0337 131.958 36.7 114 36.7L114 4.00001Z"/>
</mask>
<path d="M114 4.00001C139.654 4.00001 164.485 13.0482 184.125 29.5522L163.087 54.5865C149.34 43.0337 131.958 36.7 114 36.7L114 4.00001Z" fill="#FFB03A"/>
<path d="M114 4.00001C139.654 4.00001 164.485 13.0482 184.125 29.5522L163.087 54.5865C149.34 43.0337 131.958 36.7 114 36.7L114 4.00001Z" stroke="white" stroke-width="8" mask="url(#path-5-outside-5_14513_15140)"/>
<mask id="path-6-outside-6_14513_15140" maskUnits="userSpaceOnUse" x="157" y="23" width="69" height="81" fill="black">
<rect fill="white" x="157" y="23" width="69" height="81"/>
<path d="M184.077 29.5121C203.505 45.8193 216.638 68.3915 221.213 93.3403L189.049 99.2382C185.846 81.7741 176.654 65.9735 163.054 54.5585L184.077 29.5121Z"/>
</mask>
<path d="M184.077 29.5121C203.505 45.8193 216.638 68.3915 221.213 93.3403L189.049 99.2382C185.846 81.7741 176.654 65.9735 163.054 54.5585L184.077 29.5121Z" fill="#FC7051"/>
<path d="M184.077 29.5121C203.505 45.8193 216.638 68.3915 221.213 93.3403L189.049 99.2382C185.846 81.7741 176.654 65.9735 163.054 54.5585L184.077 29.5121Z" stroke="white" stroke-width="8" mask="url(#path-6-outside-6_14513_15140)"/>
<mask id="path-7-outside-7_14513_15140" maskUnits="userSpaceOnUse" x="175" y="88" width="53" height="84" fill="black">
<rect fill="white" x="175" y="88" width="53" height="84"/>
<path d="M221.208 93.3136C225.789 118.261 221.526 144.025 209.153 166.168L180.607 150.218C189.268 134.718 192.252 116.683 189.045 99.2195L221.208 93.3136Z"/>
</mask>
<path d="M221.208 93.3136C225.789 118.261 221.526 144.025 209.153 166.168L180.607 150.218C189.268 134.718 192.252 116.683 189.045 99.2195L221.208 93.3136Z" fill="#BA0C2F"/>
<path d="M221.208 93.3136C225.789 118.261 221.526 144.025 209.153 166.168L180.607 150.218C189.268 134.718 192.252 116.683 189.045 99.2195L221.208 93.3136Z" stroke="white" stroke-width="8" mask="url(#path-7-outside-7_14513_15140)"/>
<path d="M181.7 138.091L126.49 106.155L118.278 126.565L180.222 141.765C182.468 142.316 183.702 139.249 181.7 138.091Z" fill="#2C2C2C"/>
<circle cx="114" cy="113" r="17" transform="rotate(55.9679 114 113)" fill="#2C2C2C" stroke="white" stroke-width="4"/>
</g>
<defs>
<clipPath id="clip0_14513_15140">
<rect width="228" height="172" fill="white"/>
</clipPath>
</defs>
</svg>
